<?xml version="1.0" encoding="utf-8"?>
<!-- Generator: Adobe Illustrator 27.4.0, SVG Export Plug-In . SVG Version: 6.00 Build 0)  -->
<svg version="1.1" id="Capa_1" xmlns="http://www.w3.org/2000/svg" xmlns:xlink="http://www.w3.org/1999/xlink" x="0px" y="0px"
	 viewBox="0 0 500 100" style="enable-background:new 0 0 500 100;" xml:space="preserve">
<style type="text/css">
	.st0{fill:#A8A8A8;}
</style>
<path class="st0" d="M19.2,48.6c-7.4,0-13.6-5.2-15.4-13.4l4.9-1.1c1.3,5.7,5.8,10.7,12.9,9.2c2.7-0.6,5-2.2,6.4-4.6
	c1.4-2.4,1.7-5.3,0.8-8c-0.7-2.1-2.1-3.9-3.6-4.8L25,25.9c-1-0.6-1.7-1-2.9-1.4c-1.6-0.5-3-0.7-4-0.7l-1.8,0.1L13.9,18L26.3,6.8H6.1
	v-5h26.3V8L20.3,19c1.2,0.2,2.4,0.5,3.3,0.8l0.1,0c1.6,0.6,2.6,1.1,3.9,1.9c2.6,1.5,4.8,4.3,5.9,7.5c1.3,4.1,0.9,8.5-1.2,12.1
	c-2.1,3.6-5.6,6.1-9.6,7C21.5,48.5,20.3,48.6,19.2,48.6L19.2,48.6z"/>
<polygon class="st0" points="77.8,48.2 72.8,48.2 72.8,6.8 67.9,6.8 67.9,1.8 77.8,1.8 "/>
<path class="st0" d="M63.7,48.2H36.2v-5.7l0.7-0.7c1.5-1.6,3-3.1,4.6-4.6c1.5-1.5,3-3,4.5-4.6c1.3-1.3,2.9-2.8,4.5-4.2
	c1.5-1.4,3.2-2.8,4.3-4c0.3-0.3,0.6-0.6,0.9-0.9c1-1.1,1.5-1.6,2.4-3.1c0.7-1.2,1-3.4,0.8-6c-0.1-1.2-0.7-2.3-1.8-3.8
	c-2.8-3.8-8.3-4.1-12-2.5c-1.7,0.7-5.6,3-4.6,8.1l-4.9,0.9C34.5,11.2,37.4,6,43.1,3.5c5.6-2.4,13.6-1.8,18.1,4.2
	c1.2,1.8,2.4,3.7,2.7,6.2c0.3,3.8-0.2,6.8-1.4,9c-1.2,2-2,2.9-3.2,4c-0.3,0.3-0.6,0.6-0.9,0.9c-1.3,1.3-3,2.8-4.5,4.2
	c-1.5,1.4-3.2,2.8-4.3,4c-1.5,1.5-3,3.1-4.5,4.6c-0.8,0.8-1.7,1.7-2.5,2.5h21.2L63.7,48.2L63.7,48.2z"/>
<polygon class="st0" points="176.5,97.7 171.5,97.7 171.5,51.2 177.6,51.2 207.7,89.7 207.7,51.2 212.7,51.2 212.7,96.9 207,96.9 
	176.5,57.9 "/>
<polygon class="st0" points="163.5,97.8 147.5,56 147.3,56 131.7,97.8 127.1,96 143.9,51 150.9,51 168.1,96 "/>
<rect x="135.2" y="83" class="st0" width="25.2" height="5"/>
<polygon class="st0" points="122.7,97.6 99.7,97.6 99.7,51.7 122.7,51.7 122.7,56.7 104.7,56.7 104.7,92.6 122.7,92.6 "/>
<rect x="104.6" y="71.2" class="st0" width="17.4" height="5"/>
<path class="st0" d="M24.9,98.2c-13,0-23.6-10.6-23.6-23.6S11.9,51,24.9,51s23.6,10.6,23.6,23.6S37.9,98.2,24.9,98.2z M24.9,56
	C14.6,56,6.3,64.3,6.3,74.6s8.3,18.6,18.6,18.6s18.6-8.3,18.6-18.6S35.2,56,24.9,56z"/>
<path class="st0" d="M74.4,98.2c-13,0-23.6-10.6-23.6-23.6S61.4,51,74.4,51c8.9,0,17.2,5.1,21,13L91,66.2C87.9,60,81.4,56,74.4,56
	c-10.3,0-18.6,8.3-18.6,18.6s8.3,18.6,18.6,18.6c7,0,13.3-3.8,16.5-10l4.4,2.3C91.2,93.3,83.2,98.2,74.4,98.2L74.4,98.2z"/>
<polyline class="st0" points="127.2,95.4 131.7,95.4 131.7,97.7 126.4,97.7 "/>
<polyline class="st0" points="167.9,95.4 163.5,95.4 163.5,97.7 168.8,97.7 "/>
</svg>
