<?xml version="1.0" encoding="utf-8"?>
<!-- Generator: Adobe Illustrator 27.4.0, SVG Export Plug-In . SVG Version: 6.00 Build 0)  -->
<svg version="1.1" id="Capa_1" xmlns="http://www.w3.org/2000/svg" xmlns:xlink="http://www.w3.org/1999/xlink" x="0px" y="0px" width="500" height="100" viewBox="0 0 500 100" style="enable-background:new 0 0 500 100;" xml:space="preserve">
<style type="text/css">
	.st0{fill:#1a1a1a;}
</style>
<path class="st0" d="M35.2,6.8C35.4,4.6,37,3,38.5,1.4c3.3,3.3,3.2,8.2,4.2,12.5c3.8,20.2,7.1,40.4,11,60.6
	c0.7-14.1,0.1-28.2,0.3-42.3c0.2-9.6-0.7-19.2,0-28.9c1.8-1.3,4.8-1,4.5,1.8c0.4,27.3,0.3,54.5,0.8,81.8c5.6,0,11.1,0,16.7,0
	c0.1,1.6,0.2,3.3,0.2,4.9c-6.6,0.8-13.2,0.4-19.7,0.5c-1.8-0.1-4.5,0.1-5-2.1c-2.5-9-2.7-18.6-5.8-27.4c-5.1-0.8-10.3,0-15.5-0.2
	c-1.8,9.7-3.6,19.4-5.4,29.1c-1.3,0.3-2.7,0.5-4,0.8c1.3-12.2,3.8-24.2,5.8-36.2C29.5,39.7,32.4,23.3,35.2,6.8z M31,57.3
	c4.8,0,9.5,0,14.3,0c-2.1-13.1-4.5-26.1-6.8-39.2C35.5,31,33.6,44.2,31,57.3z"/>
<path class="st0" d="M245.1,4.5c0.3-2.6,3.2-2.1,4.9-1.3c0,22,0.2,43.9,0.2,65.9c-0.1,5.2,0.4,10.6-1.3,15.6
	c-0.9,3.1-2.6,6.5-5.9,7.7c-3.5,1-7.7,0.2-10.1-2.7c-3-3.8-3.1-8.9-3.1-13.6c0.1-23,0-46.1,0-69.1c-0.4-2.6,1.9-5.9,4.7-4
	c0.8,4.3,0.3,8.7,0.4,13c0.1,21.7-0.5,43.4-0.1,65.1c0.2,3.2,3.7,7.2,7,5.2c3.7-2.4,3.5-7.3,3.6-11.2c-0.4-10.7-0.2-21.3-0.2-32
	C245.2,30.2,244.4,17.3,245.1,4.5L245.1,4.5z"/>
<path class="st0" d="M277.9,2.7c11.4-0.2,22.8-0.2,34.2,0c0,1.7,0.1,3.3,0.1,5c-5.2,0.4-10.4,0.2-15.6,0.2c0,22,0.4,44.1,0.3,66.1
	c-0.1,5.8,0.5,11.8-0.8,17.5c-1.3,0-2.6,0-4,0c-0.2-27.8,0-55.6-0.1-83.4c-5.5,0-11,0.3-16.4-0.4C275.8,5.9,275,2.7,277.9,2.7
	L277.9,2.7z"/>
<path class="st0" d="M334.3,6.1c0-1.5-0.5-3.5,1.3-4.1c3,0.1,3.5,3.4,3.8,5.8c1,9,2,18.1,3,27.1c1,7.2,1.1,14.5,3.1,21.5
	c1.4-14.3,3.2-28.5,4.7-42.8c0.5-3.9,0.8-7.9,1.9-11.8c1.8,0.8,3.9,1.9,3.9,4.2c1.6,11.7,3,23.4,4.5,35.1c1,6.8,1.4,13.8,3,20.5
	c0.8-5.8,1.6-11.5,2-17.3l-1.3-0.9c0.7,0.1,1.3,0.4,1.9,0.8c0.6-12.1,3-24,4-36.1c0.3-2.2,0.5-5.6,3.5-5.6c6.3,0.1,12.5,0,18.8,0.1
	c2.7-0.5,3.5,3.8,1.1,4.6c-4.9,0.5-9.9,0.1-14.8,0.2c0,16.4,0,32.8,0,49.1c4.3,0.1,8.6-0.3,12.9,0.2c1.8,0.2,2.7,1.9,2.7,3.6
	c-5.1,1.2-10.4,0.4-15.6,0.6c0,6.7-0.1,13.5,0,20.2c0.1,1.7-0.1,4.2,2,4.8c4.1,1.1,8.4,0.1,12.5,0.7c1,1.4,0.8,3.3,1.1,4.8
	c-6.2,1.1-12.5,0.4-18.8,0.3c-2,0.2-2.5-2.2-2.5-3.7c0-14.3,0-28.7,0-43.1c-0.1-6.8,0.4-13.6-0.5-20.4c-2.4,22.3-4.5,44.6-7.5,66.8
	c-1,0-2.9-0.1-3.9-0.1c-1.8-13.8-3.3-27.7-5-41.5c-0.8-6-1-12.2-2.6-18c-2,20-4,40-6,60c-1.6-0.6-3.8-0.9-4.1-2.9
	c-1-5.6-1.4-11.2-1.8-16.8c-0.1,0.7-0.2,1.3-0.3,2C339.5,51.4,336.5,28.8,334.3,6.1L334.3,6.1z"/>
<path class="st0" d="M396.3,1.9c4.3,0,8.7,1.4,11.5,4.9c7.5,8.4,7.7,22.4,0.4,30.9c-1.6,2-4,4.2-3,7.1c2.8,13.8,5.7,27.5,8.6,41.3
	c0.7,3.5,1.8,7,1.6,10.7c-1.6,0.1-4.2,0.4-4.4-1.7c-3.5-14.2-6-28.5-9.6-42.7c-0.9,12.9,0.1,26-0.5,38.9c-1.6,0.1-3.1,0.1-4.7,0.2
	c-0.2-10.2,0-20.3-0.1-30.5C396.4,41.3,396,21.6,396.3,1.9z M401,7.6c-0.1,10.3-0.1,20.5,0,30.8c6.1-4.5,10.1-12.2,8.2-19.8
	C408.6,13.8,405.1,10.1,401,7.6z"/>
<path class="st0" d="M96,5.1c-0.3-2.3,2.6-3,4.1-1.7c1.1,17.1,0.5,34.3,1,51.5c-0.3,1.4,1.1,2.4,2.4,2.3c5.5,0.2,11.1,0,16.6,0.1
	c-0.1-12.8,0.2-25.5-0.2-38.2c0.1-5.6-0.7-11.1,0.2-16.7c1.4,0.1,2.9,0.3,4.3,0.5c0.9,24.3,0.6,48.6,1.3,72.9
	c0.7-2.2,1.2-4.4,1.6-6.7c3.9-20.7,7.6-41.4,11.4-62.1c0.5-1.9,1.1-5.2,3.8-4.4c1.8-0.1,1.4,2.4,2,3.5c4.1,22.3,8,44.7,12.5,67
	c0.2-2,0.4-4,0.4-6c0-21.6,0-43.2,0-64.8c6.6,0,13.4,3.7,15.9,10.1c2.7,7.5,3.2,16.4-1.1,23.4c-1.5,3.3-6.2,5.8-4.7,9.8
	c3.5,14.8,6.6,29.7,10.4,44.3c0.5-24,0.1-48,0.2-72c0.2-4.6-0.5-9.2,0.5-13.8c6.1-1.1,11.6,3.3,14.7,8.2c5.7,9.4,4.1,22.1-3.2,30.3
	c8.1,9.7,10.2,23.6,6,35.5c-2.6,7.8-10.1,12.3-17.6,14.4c0.2,1.9,0.5,3.8,0.7,5.7c-1.4,0-2.9-0.2-4.3-0.4c-1.6-1.1-1.8-3.2-2.2-4.8
	c-1.9-9.4-4.1-18.7-6.2-28.1c-0.8-3.7-1.3-7.5-3.1-10.9c-0.5,12.5,0,25-0.3,37.4c-2.7,0.2-5.4,0.7-8-0.1c-0.9-1.7-1.1-3.6-1.5-5.4
	c-1.3-8.1-2.7-16.1-4.2-24.2c-5,0-10-0.2-14.9,0.5c-2.3,9.6-3.9,19.4-5.6,29.2c-2.5,0.3-5.1,0.3-7.6,0.2c-0.3-9.9-0.1-19.7-0.1-29.6
	c-6.6,0-13.3,0-19.9,0.1c-0.2,9.8,0,19.7-0.1,29.5c-1.5,0-3.1,0-4.6-0.1c0-9.9,0-19.8,0-29.7c-6.5,0-13,0.2-19.4-0.2
	c0.1-1.4,0.1-2.8,0.2-4.2c6.1-0.2,12.2-0.1,18.2-0.1c1.9-4.6,0.5-9.6,0.8-14.3C96.4,30.4,95.6,17.8,96,5.1L96,5.1z M163.2,9.9
	c-0.2,9.3-0.2,18.5,0,27.8c3.9-3.5,7.1-8.2,7-13.6C170.6,18.4,167.6,13.2,163.2,9.9z M183.4,10.2c-0.1,10.1-0.1,20.3,0,30.4
	c3.9-2.9,7.2-6.9,8.2-11.8C192.8,21.8,189.8,14,183.4,10.2z M135,56.8c4.5,0,8.9,0,13.4,0c-2.4-12-3.9-24.3-6.9-36.2
	C139.3,32.6,137.3,44.7,135,56.8z M183.2,43.9c-0.1,13.5-0.1,27,0,40.4c8.6-4.9,12.4-15.9,9.8-25.3C191.8,53,187.7,48,183.2,43.9z"
	/>
<path class="st0" d="M210.8,3.4c2.1-0.9,4.5-0.3,6.1,1.3c3,3,4.6,7.1,5.8,11.1c4.3,14.4,4.6,29.5,4,44.4c-1,10.1-2.1,20.4-6.5,29.7
	c-1.6,3.2-4.4,7.2-8.6,6.2c-4.1-1.4-5.9-5.8-7.5-9.5c-5.5-15.2-5.7-31.6-5.1-47.5c0.7-9.2,2-18.5,5.4-27.2
	C205.8,8.7,207.5,5.1,210.8,3.4L210.8,3.4z M211.3,8.9c-3.2,3-4.3,7.4-5.4,11.4c-3.2,13-3.4,26.5-2.7,39.8
	c0.8,8.5,1.7,17.2,5.2,25.1c1,2.5,3.1,4.2,5.1,5.7c5-3.4,6.6-9.4,7.8-14.9c2.5-11.7,2.9-23.7,2.4-35.6c-1-9.6-1.6-19.7-5.9-28.5
	C216.7,9.6,213.9,6.8,211.3,8.9z"/>
<path class="st0" d="M253.1,8.1c0.1-1.8-0.3-4,1.4-5.3c5.8,0.6,10.8,4.9,13.2,10.2c2.8,6.3,3.5,13.7,1.2,20.3
	c-1.2,3.8-4.5,6.3-6,9.9c-0.8,4.3,0.8,8.6,1.6,12.8c3.1,14.1,6.2,28.3,8.9,42.5c-1.7,0.2-3.3,0.3-5,0.4c-4-15.1-6.2-30.7-10.2-45.8
	c-0.8,12.8-0.1,25.7-0.4,38.6c-1.5-0.1-3-0.1-4.5-0.4c-0.9-4-0.3-8.2-0.3-12.2C253.1,55.4,252.9,31.7,253.1,8.1z M258.1,11
	c-0.2,9.5-0.1,19.1,0,28.6c3.5-3.3,6.4-7.5,6.7-12.5C265,21.2,263.9,14.1,258.1,11z"/>
<path class="st0" d="M318.9,3.5c2-1,4.6-0.5,6.2,1.1c3,2.9,4.6,6.9,5.9,10.8c4.6,14.7,4.8,30.4,4.1,45.7c-0.9,9.6-2.2,19.4-6.3,28.3
	c-1.6,3.2-4.1,7.3-8.2,6.8c-3.8-0.8-5.8-4.7-7.3-7.9c-3.7-8.9-4.9-18.6-5.8-28.2c-0.7-15.6-0.2-31.5,4.7-46.4
	C313.5,9.8,315.2,5.7,318.9,3.5L318.9,3.5z M316.2,14.1c-2.5,6.4-3.6,13.2-4.3,20c-1.4,12-1,24.1,0.7,36c1.4,7.4,2.3,16.1,8.9,20.9
	c3.1-1.9,5.3-5,6.3-8.5c3.5-10.7,4.4-22.1,4.3-33.3c0.1-11.4-0.8-23.1-4.6-33.9c-1.2-2.8-2.5-6.6-6-7
	C318.6,8.7,317.3,11.7,316.2,14.1L316.2,14.1z"/>
<path class="st0" d="M2.5,3.3C9,3.1,15.2,6.6,18.3,12.2c3.2,6,4.7,13.2,2.5,19.8c-1.2,4-3.8,7.4-5.9,10.9c4,5.1,7.7,10.7,8.6,17.2
	c1.8,10.2-1.9,21.4-10.3,27.8c-3.1,2.5-7,3.8-10.7,5.1C2.5,63.1,2.5,33.2,2.5,3.3L2.5,3.3z M7.4,9.4C7.3,20,7.3,30.6,7.4,41.2
	c4.9-4,10.2-9.2,9.8-16.1C17.5,18.4,12.9,12.7,7.4,9.4z M7.7,44.3c-0.1,13.5-0.1,27,0,40.6C14,81.2,18.6,74.5,18.3,67
	C18.9,58.2,14.3,49.8,7.7,44.3z"/>
<path class="st0" d="M63.8,53.3c3.9-2.7,8.4,1.9,9,5.7c1.2,5-4.8,9.9-9.3,7C58.7,63.4,59.5,56,63.8,53.3z"/>
<path class="st0" d="M277.7,52.8c3.9-0.9,6.9,3.8,6.4,7.3c0.3,3.7-3.4,7.7-7.2,6.5C270.9,64.6,271.7,54.3,277.7,52.8z"/>
</svg>
